<?xml version="1.0" standalone="no"?>
<!DOCTYPE svg PUBLIC "-//W3C//DTD SVG 20010904//EN"
 "http://www.w3.org/TR/2001/REC-SVG-20010904/DTD/svg10.dtd">
<svg version="1.0" xmlns="http://www.w3.org/2000/svg"
 width="1078.000000pt" height="1078.000000pt" viewBox="0 0 1078.000000 1078.000000"
 preserveAspectRatio="xMidYMid meet">
<metadata>
Created by potrace 1.16, written by Peter Selinger 2001-2019
</metadata>
<g transform="translate(0.000000,1078.000000) scale(0.100000,-0.100000)"
fill="#000000" stroke="none">
<path d="M5318 5510 c-38 -11 -86 -47 -93 -69 -9 -31 12 -71 45 -82 16 -6 30
-17 30 -25 0 -8 5 -23 12 -33 10 -17 6 -25 -34 -63 -28 -27 -52 -63 -63 -94
-9 -27 -32 -88 -51 -136 -35 -90 -41 -120 -99 -458 -20 -113 -38 -212 -40
-220 -3 -8 -18 -21 -35 -28 -36 -16 -48 -53 -30 -96 45 -108 49 -132 51 -280
2 -176 5 -171 -121 -206 -47 -12 -122 -38 -168 -56 -78 -31 -83 -32 -76 -12 5
17 3 20 -10 15 -9 -4 -17 -1 -17 6 -3 22 -8 62 -12 87 -3 14 -5 31 -6 38 0 6
-10 12 -21 12 -23 0 -24 4 -10 30 14 26 -4 72 -25 64 -11 -4 -13 -13 -9 -27 6
-20 6 -20 -10 -4 -10 9 -22 17 -27 17 -6 0 -7 5 -4 10 9 14 -19 12 -33 -2 -7
-7 -12 -25 -12 -41 0 -27 -3 -29 -30 -25 -27 4 -30 2 -30 -24 0 -15 -4 -28 -9
-28 -5 0 -12 -11 -15 -24 -4 -15 -13 -23 -23 -22 -19 1 -19 0 -9 -50 5 -22 2
-36 -8 -47 -20 -20 -20 -37 0 -65 10 -15 11 -22 3 -22 -8 0 -8 -4 2 -16 10
-12 10 -17 0 -23 -7 -5 -12 -11 -12 -15 2 -16 0 -18 -12 -8 -8 7 -18 7 -27 2
-12 -8 -13 -13 -2 -30 10 -17 10 -20 -5 -21 -11 0 -13 -3 -5 -6 20 -8 14 -20
-30 -52 -51 -38 -58 -38 -58 -6 0 24 -39 75 -57 75 -4 0 -19 -9 -33 -20 -23
-18 -25 -26 -28 -120 l-4 -102 -63 -79 c-35 -43 -83 -109 -108 -146 -79 -122
-132 -206 -132 -212 -1 -17 -50 -121 -57 -121 -5 0 -6 -4 -3 -10 3 -5 1 -18
-5 -27 -11 -16 -11 -16 -6 -1 3 10 0 20 -6 24 -8 5 -9 -3 -5 -25 8 -38 -8 -75
-29 -67 -8 3 -14 1 -14 -4 0 -6 -16 -10 -35 -10 -29 0 -37 5 -46 27 -5 15 -8
43 -5 63 3 19 8 63 12 98 5 42 11 62 20 62 17 0 17 5 3 32 -11 20 -9 21 24 15
20 -3 37 -1 39 4 4 11 63 -4 62 -17 -1 -5 1 -15 4 -22 8 -23 -7 -25 -25 -3
-17 20 -19 21 -38 6 -14 -12 -16 -18 -7 -21 6 -3 12 -19 12 -36 0 -21 4 -29
14 -25 7 3 19 0 25 -6 8 -8 11 -7 11 5 0 9 -7 18 -15 22 -8 3 -15 12 -15 21 0
8 -4 15 -10 15 -5 0 -10 5 -10 10 0 6 7 10 15 10 8 0 15 -7 15 -15 0 -21 27
-19 39 3 10 15 10 15 11 -3 0 -12 -5 -26 -11 -32 -6 -6 -9 -19 -6 -29 4 -16 5
-16 6 3 0 12 6 25 11 28 16 10 12 43 -7 54 -16 9 -16 10 5 11 12 0 22 -6 22
-12 1 -15 29 32 29 47 0 6 -4 2 -10 -7 -13 -24 -31 -23 -49 2 -8 11 -20 20
-27 20 -23 0 -14 50 13 75 l27 25 -30 0 c-22 0 -32 6 -36 19 -3 13 -1 18 9 14
8 -3 12 2 11 16 -1 16 -6 19 -23 15 -13 -3 -31 -1 -41 6 -16 10 -16 11 0 6 14
-4 16 -1 11 18 -4 17 1 30 16 44 l22 20 -21 11 c-12 7 -18 17 -15 26 6 15 -5
19 -36 16 -10 -1 -11 1 -3 6 17 12 28 63 13 63 -7 0 -10 7 -6 15 3 9 0 15 -10
15 -11 0 -14 5 -9 18 4 9 10 23 13 31 3 9 1 12 -5 8 -7 -4 -13 10 -17 38 -4
25 -14 52 -23 60 -8 9 -12 22 -9 30 8 21 -3 45 -21 45 -10 0 -13 -6 -9 -17 6
-14 2 -12 -17 5 -18 17 -26 19 -35 10 -7 -7 -12 -20 -12 -30 0 -11 -7 -18 -20
-18 -11 0 -20 -6 -20 -14 0 -7 -12 -25 -26 -41 -14 -15 -24 -37 -23 -49 1 -11
-1 -33 -5 -48 -5 -15 -3 -41 2 -58 8 -22 8 -30 -1 -30 -8 0 -6 -4 3 -11 12 -9
11 -10 -6 -6 -12 2 -29 0 -38 -5 -14 -8 -16 -3 -16 32 0 22 -4 40 -9 40 -11 0
-31 -55 -31 -85 0 -31 -27 -52 -96 -73 -49 -15 -60 -22 -62 -42 -5 -37 -13
-42 -123 -80 -56 -19 -101 -39 -101 -45 0 -5 19 -17 43 -25 60 -21 76 -54 95
-195 14 -111 14 -118 -3 -131 -17 -13 -17 -14 0 -8 13 5 17 1 17 -15 0 -15 -4
-19 -17 -14 -10 4 -14 2 -10 -4 5 -7 -5 -10 -26 -8 -95 9 -415 -79 -424 -117
-3 -9 -12 -18 -21 -21 -169 -49 -240 -72 -287 -93 -63 -27 -108 -26 -120 4 -8
20 -20 274 -36 765 -10 289 -10 378 0 415 10 40 9 54 -5 92 -11 30 -18 97 -23
206 -6 147 -9 165 -34 215 -15 30 -31 79 -36 109 l-9 55 -1 -52 c-1 -38 -10
-69 -32 -112 -31 -59 -32 -63 -38 -251 -5 -110 -12 -195 -18 -201 -7 -7 -8
-24 -2 -47 4 -19 4 -137 -1 -261 -5 -124 -14 -386 -21 -581 -9 -296 -14 -360
-28 -385 -15 -28 -83 -71 -142 -90 -25 -8 -34 -11 -46 -15 -14 -5 -27 -8 -48
-9 -15 -1 -17 -3 -6 -10 9 -6 10 -11 2 -15 -6 -4 -11 -4 -11 -1 0 4 -7 -1 -16
-9 -21 -22 -34 -20 -69 8 l-29 24 82 41 c46 23 87 39 92 36 13 -8 52 62 48 87
-3 20 -26 30 -221 88 -200 60 -217 67 -211 85 4 11 8 36 9 55 2 31 10 40 75
85 40 27 84 65 98 84 l26 33 -27 24 c-34 29 -176 75 -242 77 -27 2 -50 5 -50
8 0 3 28 54 62 112 35 59 63 109 63 111 0 3 -39 7 -87 8 l-88 3 -9 30 c-18 62
-39 105 -52 105 -13 0 -18 -12 -29 -70 -12 -65 -13 -67 -45 -62 -22 3 -30 0
-30 -10 0 -21 -29 -52 -67 -72 -18 -9 -33 -20 -33 -25 0 -15 36 -41 57 -41 28
0 53 -31 53 -66 -1 -24 -13 -38 -68 -81 -80 -63 -80 -63 -81 85 -1 56 -6 146
-12 199 l-11 97 52 108 c39 79 51 114 46 133 -6 22 -10 24 -34 19 -15 -4 -42
-15 -60 -25 -18 -11 -37 -19 -42 -19 -5 0 -17 26 -26 58 -66 233 -216 573
-299 677 -22 28 -49 67 -60 88 -11 21 -50 82 -87 135 -37 53 -86 129 -109 167
-44 73 -125 170 -116 138 3 -10 9 -43 12 -73 4 -30 20 -125 37 -210 176 -916
567 -1738 1179 -2475 107 -129 505 -527 634 -634 884 -733 1904 -1157 3025
-1255 231 -21 689 -21 920 0 1120 98 2152 526 3025 1255 135 113 433 407 565
556 181 206 385 479 518 693 97 158 106 174 94 166 -8 -4 -12 -1 -12 10 0 16
-1 16 -15 -2 -9 -12 -14 -14 -15 -6 0 15 -20 6 -20 -9 0 -6 4 -8 9 -5 5 3 8
-5 7 -19 0 -14 -5 -25 -10 -25 -5 0 -7 -3 -3 -6 3 -3 -28 -50 -68 -103 -104
-134 -124 -158 -125 -143 0 20 -16 14 -16 -7 0 -11 5 -17 11 -13 5 3 1 -7 -9
-23 -39 -62 -71 -105 -78 -105 -8 0 -29 60 -24 69 3 4 -5 8 -17 8 -12 1 -17
-1 -10 -5 19 -12 42 -79 31 -90 -12 -12 -57 7 -90 36 -10 8 -18 12 -18 8 0 -3
-11 1 -25 10 -14 9 -23 20 -20 24 3 5 -4 11 -15 15 -11 3 -20 12 -20 20 0 7
-5 15 -12 17 -6 2 -12 13 -13 24 -1 10 -7 32 -14 48 -6 16 -10 34 -7 40 2 6 5
3 5 -6 1 -10 6 -18 11 -18 6 0 10 -7 10 -15 0 -8 7 -15 15 -15 10 0 15 9 14
28 l-1 27 -8 -25 c-4 -14 -8 -18 -9 -9 -2 35 -60 60 -68 29 -4 -13 -3 -13 6 0
18 26 12 2 -8 -31 -10 -17 -17 -40 -14 -52 4 -20 3 -20 -7 -5 -8 13 -8 23 0
39 7 11 9 23 6 26 -3 3 -10 -5 -15 -18 -5 -13 -10 -17 -10 -9 -1 8 6 27 13 43
8 15 11 27 6 27 -4 0 -11 -6 -13 -12 -4 -10 -8 -10 -14 -2 -4 7 -8 -19 -9 -60
-1 -50 1 -61 6 -36 l6 35 8 -28 c5 -16 4 -32 -2 -40 -6 -6 -10 -16 -10 -22 -1
-16 -18 -17 -32 0 -7 8 -9 15 -4 15 5 1 -7 8 -26 18 -19 9 -35 24 -35 32 0 8
-9 15 -20 15 -13 0 -21 8 -23 23 -2 12 -8 22 -13 22 -5 0 -9 10 -10 23 0 12
-3 16 -6 9 -12 -30 35 -94 103 -140 17 -11 17 -12 -6 -6 -40 10 -67 40 -133
151 -4 6 0 19 9 27 8 9 14 16 12 17 -40 9 -47 8 -41 -8 4 -11 3 -14 -5 -9 -7
4 -12 16 -12 26 0 10 -5 22 -12 26 -7 5 -8 3 -3 -6 5 -8 4 -11 -2 -7 -18 11
-36 83 -26 103 6 10 9 44 7 74 -3 50 -8 76 -29 135 -5 14 -4 16 3 7 7 -11 10
-11 15 3 4 9 3 14 -2 11 -13 -8 -58 31 -48 41 5 4 15 -1 23 -11 7 -11 17 -16
21 -12 9 9 -25 31 -46 31 -8 0 -25 20 -37 45 -24 47 -31 75 -15 66 5 -4 7 3 4
14 -4 14 0 20 12 20 9 0 15 5 13 12 -6 18 -28 21 -28 4 0 -23 -28 -20 -35 5
-4 11 -4 23 -1 26 3 4 1 12 -5 19 -7 8 -7 14 1 19 16 10 12 33 -8 39 -14 5
-18 14 -15 39 4 25 2 29 -6 17 -9 -12 -11 -10 -10 10 1 34 -19 216 -30 273 -6
37 -5 49 8 62 15 16 13 17 -26 13 -23 -2 -41 -1 -41 2 2 22 -4 39 -14 43 -7 2
-1 3 15 1 15 -2 27 1 27 6 0 6 -4 10 -10 10 -5 0 -6 7 -3 17 5 12 3 14 -8 7
-8 -4 -30 -9 -50 -9 -29 0 -35 3 -31 18 5 20 18 22 25 5 3 -7 6 -3 6 10 1 14
-5 22 -16 22 -15 0 -15 2 1 19 10 11 15 25 11 30 -3 7 2 11 14 11 20 0 38 17
28 26 -3 3 -14 6 -26 7 -24 1 -26 8 -9 25 9 9 9 12 -1 12 -7 0 -10 4 -7 9 3 5
-1 11 -9 15 -8 3 -17 1 -20 -5 -4 -5 -11 -7 -16 -3 -6 3 -3 12 8 20 12 9 13
13 5 14 -10 0 -10 4 2 16 18 17 21 34 7 34 -5 0 -13 10 -17 23 -4 12 -12 25
-18 29 -8 5 -8 15 1 37 8 23 8 30 0 28 -7 -1 -11 6 -11 16 1 9 -5 17 -13 17
-12 0 -13 3 -3 15 6 8 9 19 5 25 -7 11 -16 47 -17 68 -1 6 -5 12 -10 12 -4 0
-8 -6 -9 -12 0 -7 -4 -4 -8 7 -5 11 -5 26 -1 33 8 15 1 62 -9 62 -3 0 -12 -4
-20 -9 -9 -6 -10 -11 -2 -15 6 -4 9 -11 6 -16 -3 -5 -18 4 -34 20 -27 29 -28
29 -45 11 -10 -11 -16 -25 -15 -33 4 -29 -2 -34 -31 -30 -27 4 -30 1 -30 -21
0 -14 -5 -27 -11 -29 -6 -2 -12 -16 -12 -31 -2 -25 -17 -40 -17 -17 0 6 -5 10
-11 10 -7 0 -9 -11 -5 -32 10 -51 8 -67 -8 -84 -20 -19 -20 -25 -1 -50 18 -24
19 -38 3 -28 -8 5 -8 1 1 -10 13 -15 13 -19 0 -27 -13 -8 -6 -13 14 -10 4 0 7
-3 7 -9 0 -13 -37 -13 -45 0 -4 6 -13 4 -23 -6 -15 -15 -15 -17 2 -29 10 -8
13 -16 7 -19 -5 -4 -1 -16 11 -29 12 -13 22 -34 24 -48 2 -20 -3 -24 -24 -26
-15 0 -28 -6 -30 -12 -2 -6 -13 -11 -24 -11 -20 0 -20 -1 -3 -20 12 -13 25
-17 45 -14 38 8 47 -12 18 -39 -14 -13 -23 -28 -20 -35 8 -24 -60 -1 -89 30
-9 10 -20 18 -24 18 -5 0 0 -9 10 -20 17 -19 17 -20 0 -20 -26 0 -10 -13 33
-27 20 -7 27 -11 14 -9 -13 3 -20 0 -16 -6 4 -6 0 -15 -7 -20 -10 -7 -6 -8 14
-4 23 5 27 3 27 -15 0 -18 4 -20 25 -15 14 3 36 9 50 12 15 4 25 2 25 -5 0 -6
-9 -11 -19 -11 -11 0 -23 -5 -26 -10 -4 -6 -16 -8 -27 -4 -14 4 -18 2 -14 -5
7 -11 1 -15 -47 -25 -22 -5 -25 -9 -15 -20 7 -7 20 -11 30 -8 12 3 18 -1 18
-12 0 -9 5 -16 10 -16 6 0 10 5 10 10 0 14 27 12 34 -2 5 -10 7 -10 12 0 3 6
12 12 19 12 7 0 15 7 19 15 3 9 19 15 41 15 38 0 44 -10 19 -34 -14 -15 -13
-16 17 -16 27 0 30 -2 19 -15 -8 -10 -9 -15 -2 -15 6 0 9 -7 6 -15 -4 -9 0
-15 8 -15 11 0 13 -13 10 -60 -3 -48 -1 -60 10 -60 12 0 14 11 10 50 -6 63 2
87 23 70 12 -10 21 -10 40 -2 15 7 26 8 30 2 8 -12 45 -13 45 -1 0 5 -7 21
-15 37 -16 32 -12 43 8 25 8 -6 21 -9 30 -5 8 3 18 1 22 -5 3 -6 11 -11 16
-11 6 0 7 5 4 10 -4 6 8 10 29 10 25 0 36 -4 36 -15 0 -8 -6 -15 -12 -15 -9 0
-8 -4 2 -10 12 -8 9 -10 -13 -10 -16 0 -26 -4 -23 -9 3 -5 16 -7 29 -5 15 3
17 2 7 -3 -8 -5 -16 -24 -17 -43 -2 -28 -1 -31 7 -15 7 16 9 14 7 -15 0 -19
-4 -37 -8 -40 -4 -3 -10 -19 -13 -35 -5 -25 -5 -27 4 -10 9 18 10 17 5 -5 -3
-14 -8 -40 -12 -57 -3 -18 -10 -33 -15 -33 -5 0 -6 -4 -3 -10 3 -5 1 -10 -4
-10 -6 0 -11 5 -11 10 0 6 -5 10 -11 10 -7 0 -6 -8 3 -22 14 -20 13 -27 -3
-66 -11 -24 -19 -51 -19 -60 -1 -20 -29 -73 -30 -54 0 6 -5 12 -11 12 -6 0 -9
-6 -6 -13 3 -8 -6 -27 -19 -42 -13 -15 -24 -23 -24 -17 0 6 7 17 15 26 21 21
19 28 -5 14 -15 -10 -19 -22 -17 -56 1 -24 -4 -46 -10 -50 -14 -9 -14 -91 1
-110 7 -10 6 -16 -3 -22 -8 -4 -10 -13 -7 -19 4 -6 12 -9 17 -6 5 4 9 1 9 -5
0 -6 -8 -13 -17 -17 -35 -12 -43 -24 -32 -44 11 -22 -16 -73 -34 -62 -6 3 -7
1 -3 -6 4 -6 -5 -28 -22 -49 -16 -20 -33 -47 -37 -60 -4 -13 -9 -22 -11 -19
-6 6 18 71 30 79 8 5 7 11 -2 20 -9 9 -12 8 -12 -8 -1 -19 -1 -19 -17 1 l-16
20 8 -20 c8 -20 8 -30 1 -90 -2 -16 -4 -38 -4 -47 -1 -11 -8 -15 -16 -12 -10
4 -13 0 -10 -13 6 -25 -66 -69 -107 -65 -28 3 -39 -10 -19 -23 6 -3 10 -1 10
4 0 6 7 11 16 11 13 0 15 -6 9 -28 -4 -15 -7 -35 -7 -46 1 -10 -2 -16 -5 -12
-3 3 -12 -6 -20 -20 -16 -31 -16 -34 -3 -34 6 0 10 7 10 15 0 8 5 15 10 15 17
0 11 -36 -8 -53 -14 -13 -38 -17 -100 -17 -115 0 -115 18 0 23 l93 3 -93 2
-94 2 4 130 3 130 -25 10 c-14 6 -36 12 -50 15 -14 2 -53 16 -88 31 -45 19
-62 31 -60 43 2 9 13 16 26 15 12 0 22 3 22 8 0 4 -4 8 -9 8 -6 0 -12 17 -14
38 l-4 37 -1 -37 c-2 -46 -22 -51 -22 -6 0 17 -7 40 -17 50 -9 11 -11 18 -5
18 7 0 12 5 12 11 0 8 -4 8 -13 0 -14 -11 -77 -11 -77 1 0 4 15 9 33 11 l32 4
-35 3 -35 2 30 8 30 8 -32 1 c-19 0 -33 6 -33 14 0 6 -5 4 -11 -7 -9 -14 -8
-20 2 -27 7 -4 11 -11 7 -14 -3 -3 -14 2 -23 12 -11 11 -14 18 -6 21 6 2 11 8
11 13 0 4 -6 6 -14 3 -16 -6 -40 31 -31 46 3 6 -1 10 -10 10 -9 0 -13 -4 -10
-10 3 -6 0 -10 -8 -10 -8 0 -18 12 -21 26 -7 28 -21 25 -21 -4 0 -15 -21 -17
-214 -19 -118 -1 -220 1 -225 5 -6 4 -14 7 -18 8 -5 1 -11 2 -15 3 -5 1 -1 5
7 11 8 5 11 12 7 16 -11 11 -19 -2 -23 -38 -2 -17 -10 -35 -17 -40 -8 -5 -9
-10 -1 -15 11 -9 12 -98 1 -109 -4 -4 -7 -17 -6 -28 0 -21 1 -21 8 -1 6 14 8
8 7 -22 -1 -46 -12 -37 -27 21 -4 17 -17 56 -30 86 -12 30 -22 68 -22 83 0 17
-3 24 -7 17 -5 -8 -12 2 -20 26 -7 21 -20 51 -29 65 -11 17 -15 42 -13 66 l4
39 46 -2 c26 -1 54 -5 63 -9 21 -8 35 13 20 28 -29 29 12 54 53 32 13 -7 20
-7 23 1 2 7 21 10 50 6 33 -4 49 -1 57 9 19 26 60 49 84 49 25 0 25 0 5 -48
-4 -9 1 -11 19 -7 23 6 25 4 23 -24 -1 -20 3 -31 11 -31 9 0 14 -18 16 -52 3
-51 4 -53 33 -55 27 -2 28 -2 8 7 -19 8 -23 17 -23 55 0 43 1 45 24 39 13 -3
34 -1 45 6 14 7 21 7 21 0 0 -5 11 -10 25 -10 25 0 35 23 15 35 -19 11 -10 23
20 27 17 3 30 1 30 -4 0 -4 9 -8 21 -8 13 0 18 4 13 12 -5 8 6 10 43 5 48 -5
51 -5 51 17 0 18 -5 22 -19 19 -16 -5 -19 0 -19 29 0 19 -5 39 -12 46 -9 9 -7
12 13 12 13 0 30 9 37 20 12 20 62 28 62 10 0 -13 49 -5 85 14 40 21 48 20 42
-4 -3 -13 0 -20 9 -20 8 0 14 -9 14 -20 0 -11 5 -20 10 -20 6 0 10 -22 10 -50
0 -27 5 -50 10 -50 6 0 10 22 10 48 l0 48 50 -3 c48 -3 50 -2 45 20 -6 23 -5
23 79 21 69 -1 88 1 98 15 10 13 10 14 -2 4 -19 -18 -40 -16 -40 3 0 8 -5 12
-10 9 -11 -6 -14 0 -25 48 -4 20 -2 27 5 22 7 -4 20 2 31 14 l20 21 -30 0
c-20 0 -34 7 -41 20 -8 15 -8 18 3 15 7 -3 13 2 13 13 0 14 -6 17 -23 14 -16
-3 -23 0 -23 11 0 8 -3 22 -6 30 -3 8 4 24 16 35 18 17 19 21 7 29 -8 4 -17
17 -19 28 -2 12 -10 19 -21 17 -17 -3 -15 19 6 46 6 8 6 12 -2 12 -6 0 -11 9
-11 20 0 11 -5 20 -11 20 -7 0 -9 10 -7 25 3 14 1 25 -4 25 -6 0 -8 7 -4 15 3
8 1 15 -5 15 -6 0 -8 4 -5 8 9 14 -10 67 -23 64 -8 -1 -11 10 -7 37 4 38 3 40
-22 39 -15 -1 -34 0 -42 3 -10 3 -16 -5 -18 -23 -3 -22 -9 -28 -28 -28 -17 0
-24 -5 -24 -20 0 -11 -4 -20 -10 -20 -5 0 -10 -9 -10 -20 0 -13 -5 -18 -15
-14 -11 5 -13 -1 -8 -31 4 -26 2 -40 -7 -45 -10 -6 -11 -15 -4 -32 6 -13 9
-30 9 -38 -1 -8 -3 -23 -3 -34 -2 -15 -5 -16 -16 -7 -8 7 -17 8 -20 3 -7 -12
4 -52 15 -52 5 0 9 -7 9 -15 0 -8 4 -15 10 -15 22 0 -4 -30 -36 -42 -41 -15
-39 -32 4 -36 32 -3 46 -22 17 -22 -8 0 -15 -9 -15 -20 0 -25 -7 -25 -48 0
-38 24 -49 25 -33 6 9 -11 9 -15 -1 -19 -8 -4 -7 -6 5 -6 10 -1 17 -9 17 -21
0 -11 6 -20 14 -20 8 0 18 -9 21 -21 8 -24 10 -21 -36 -37 -51 -17 -77 -15
-84 7 -3 11 -11 22 -18 24 -7 2 0 3 16 1 15 -2 27 1 27 6 0 6 -5 10 -11 10 -8
0 -8 5 1 15 10 12 10 15 -3 15 -9 0 -18 -4 -21 -9 -10 -15 -45 -1 -39 15 3 8
0 20 -6 27 -13 16 7 67 25 67 24 0 23 28 -2 34 -23 6 -34 26 -14 26 6 0 2 9
-8 20 -12 13 -26 18 -38 14 -18 -5 -18 -5 0 10 11 9 14 16 8 16 -9 0 -8 7 3
24 14 21 14 24 0 29 -8 4 -15 15 -15 26 0 10 -7 21 -15 25 -12 4 -13 11 -5 31
13 33 13 38 0 30 -5 -3 -10 3 -10 14 0 12 -5 21 -11 21 -8 0 -8 5 1 15 9 10 9
19 2 28 -5 6 -13 26 -17 44 -4 22 -11 30 -21 26 -16 -6 -20 32 -4 42 14 8 -4
48 -23 51 -13 2 -16 -3 -11 -23 7 -25 6 -25 -23 6 -28 29 -32 30 -47 16 -9 -9
-16 -29 -16 -45 0 -27 -2 -29 -30 -23 -27 5 -30 3 -30 -20 0 -14 -5 -27 -11
-29 -6 -2 -11 -16 -11 -31 0 -28 -13 -37 -21 -14 -3 9 -8 9 -16 1 -9 -8 -9
-18 -1 -38 15 -40 12 -66 -6 -66 -13 0 -15 -6 -9 -27 9 -36 14 -106 8 -116 -3
-4 -10 -4 -16 2 -8 6 -19 4 -32 -5 -19 -15 -19 -16 -2 -29 18 -13 18 -13 0
-18 -16 -4 -15 -6 5 -12 12 -4 22 -13 22 -21 0 -7 8 -18 18 -23 11 -7 13 -10
3 -11 -10 0 -11 -3 -2 -14 10 -12 6 -15 -19 -21 -16 -4 -30 -11 -30 -16 0 -5
-9 -9 -20 -9 -25 0 -25 -9 -2 -26 15 -12 15 -15 2 -24 -23 -16 -43 -7 -45 18
-1 13 -8 28 -16 33 -10 6 -10 9 -1 9 6 0 12 8 12 18 0 11 12 24 28 31 l27 13
-34 17 c-20 11 -29 21 -23 25 20 12 1 38 -24 33 -29 -5 -29 -2 -5 44 19 35 19
36 0 47 -11 7 -16 18 -13 27 4 10 0 15 -11 15 -16 0 -16 9 3 59 4 10 1 12 -8
6 -10 -6 -12 -3 -8 13 4 16 2 22 -9 22 -12 0 -13 3 -4 14 7 8 8 17 3 20 -6 3
-13 22 -16 42 -5 26 -11 34 -22 30 -12 -5 -14 3 -11 44 5 57 -1 66 -29 45 -11
-8 -14 -14 -6 -15 6 0 12 -5 12 -11 0 -6 -14 1 -31 16 -39 32 -53 28 -59 -16
-4 -30 -9 -34 -32 -33 -23 1 -28 -3 -28 -21 0 -13 -7 -25 -15 -29 -8 -3 -15
-12 -15 -20 0 -8 -9 -18 -20 -21 -22 -7 -25 -26 -9 -57 8 -15 8 -22 -1 -28 -9
-6 -9 -9 1 -13 10 -4 9 -6 -3 -6 -13 -1 -18 -9 -18 -29 0 -16 3 -32 8 -36 9
-10 10 -56 0 -56 -4 0 -5 -7 -1 -16 5 -13 2 -15 -13 -10 -10 3 -25 1 -33 -3
-13 -8 -13 -12 -1 -26 11 -14 11 -18 1 -25 -10 -6 -8 -10 8 -15 11 -3 21 -13
21 -21 0 -8 4 -14 9 -14 5 0 9 -11 9 -24 0 -15 -5 -23 -13 -20 -7 3 -19 -2
-28 -10 -9 -9 -23 -16 -31 -16 -9 0 -16 -4 -16 -8 0 -18 26 -32 57 -32 37 0
45 -19 12 -27 -16 -4 -17 -8 -7 -14 10 -7 9 -9 -4 -9 -12 0 -15 -5 -11 -17 4
-10 -8 0 -27 22 -252 299 -555 494 -919 594 -41 12 -78 26 -83 33 -4 7 -8 80
-8 161 0 132 3 157 25 223 37 110 35 119 -29 172 -12 9 -16 31 -16 80 0 37 -5
85 -10 107 -5 22 -25 126 -45 230 -28 147 -44 207 -71 264 -19 40 -41 99 -48
130 -16 70 -29 91 -72 119 -32 21 -34 26 -28 60 4 22 16 45 31 56 14 11 32 35
40 54 13 30 12 36 -2 52 -37 41 -172 63 -247 40z m167 -426 c63 -16 105 -38
105 -55 0 -6 -44 -8 -127 -3 -107 5 -136 3 -173 -11 -83 -31 -83 -31 -75 -4
11 38 36 57 95 73 72 19 103 19 175 0z m68 -144 c43 -13 77 -42 77 -66 0 -13
-7 -15 -32 -10 -82 15 -293 17 -343 3 -27 -8 -57 -16 -65 -18 -23 -6 -25 44
-3 64 35 31 121 47 228 43 55 -2 117 -9 138 -16z m27 -145 c30 -9 63 -26 74
-38 18 -21 18 -22 -8 -32 -27 -11 -178 3 -204 19 -7 4 -19 22 -26 39 l-13 32
-22 -36 c-20 -34 -26 -37 -126 -59 -115 -25 -133 -22 -121 23 7 28 57 52 141
67 71 13 240 4 305 -15z m8 -150 c53 -12 74 -22 86 -40 9 -13 16 -27 16 -31 0
-8 -149 6 -179 18 -13 5 -42 23 -63 40 -36 28 -42 30 -66 18 -119 -57 -249
-109 -259 -105 -22 8 -15 52 12 73 15 12 56 25 98 32 39 7 79 13 87 15 32 8
201 -5 268 -20z m-98 -123 c75 -72 80 -80 80 -119 0 -49 -31 -91 -70 -94 -14
-1 -75 -1 -137 -1 l-112 2 -17 55 c-15 46 -16 58 -4 79 14 27 155 156 171 156
5 0 45 -35 89 -78z m-311 -148 l1 -62 -45 -4 c-41 -3 -46 -1 -50 19 -3 13 -7
34 -10 47 -10 50 19 93 75 109 19 5 27 -27 29 -109z m496 99 c42 -20 49 -39
40 -109 l-6 -54 -45 0 -44 0 0 44 c0 46 11 136 16 136 2 0 19 -8 39 -17z m68
-303 c-68 -27 -634 -43 -688 -18 -14 6 -25 15 -25 20 0 4 165 8 368 7 219 0
358 -4 345 -9z m-13 -245 c0 -91 -3 -165 -8 -165 -4 0 -75 15 -158 33 -147 33
-152 33 -174 15 -16 -13 -39 -18 -84 -18 -34 0 -89 -5 -122 -10 -32 -6 -71
-12 -86 -15 l-28 -4 0 164 0 165 330 0 330 0 0 -165z m-10 -214 c63 -11 160
-34 215 -51 120 -38 315 -128 315 -146 0 -15 -51 -155 -75 -206 -14 -29 -39
-49 -124 -99 -58 -35 -123 -74 -145 -87 l-39 -24 43 -24 c60 -34 143 -102 156
-127 7 -12 14 -35 18 -52 5 -26 2 -32 -21 -46 -16 -9 -95 -58 -177 -108 -81
-51 -152 -89 -156 -84 -3 4 -37 53 -75 108 -37 55 -77 111 -89 123 -33 37 -87
61 -113 51 -27 -10 -28 -9 -7 34 15 31 15 37 0 68 -9 19 -25 45 -35 58 l-18
24 -27 -45 c-30 -52 -32 -74 -10 -122 20 -41 14 -61 -26 -84 -16 -9 -30 -21
-30 -26 0 -5 17 -23 37 -41 l37 -32 -52 -13 c-61 -14 -71 -24 -40 -41 30 -16
183 -16 223 0 l30 13 -34 14 c-18 8 -44 14 -57 14 -13 0 -24 3 -24 6 0 15 43
63 61 69 19 6 19 7 -5 32 -36 36 -32 49 7 26 38 -22 86 -91 106 -151 13 -38
13 -45 0 -53 -8 -5 -110 -9 -228 -9 l-213 0 18 27 c10 16 51 73 91 128 67 91
72 100 52 103 -30 5 -95 -60 -184 -187 -75 -105 -94 -147 -77 -177 8 -14 16
-7 48 40 21 31 42 56 46 56 6 0 38 -85 38 -101 0 -4 -10 -9 -22 -11 -30 -4
-34 -25 -6 -34 13 -5 59 -9 103 -9 104 -2 115 -3 115 -14 0 -5 -44 -12 -97
-15 -227 -15 -253 -18 -253 -31 0 -19 25 -26 120 -32 98 -7 142 -22 65 -23
-27 0 -67 -3 -87 -6 l-38 -7 -1 -61 -2 -61 -11 55 c-6 30 -15 61 -19 68 -5 8
-34 12 -83 12 l-74 0 0 110 c0 61 -3 110 -7 109 -5 0 -35 -10 -68 -22 l-60
-22 -3 -45 c-2 -25 -7 -49 -13 -55 -16 -16 -10 -39 17 -60 17 -14 23 -26 19
-38 -7 -16 -29 -17 -270 -17 l-264 0 -5 43 c-23 191 -47 495 -52 657 l-7 195
84 72 c269 228 584 362 944 403 124 14 383 4 515 -19z m694 -290 c249 -176
433 -396 576 -686 60 -122 112 -257 134 -347 6 -28 6 -28 -49 -28 -36 0 -70 7
-95 20 -22 11 -48 20 -59 20 -11 0 -22 -9 -26 -20 -6 -18 -15 -20 -115 -20
-64 0 -111 4 -115 10 -4 6 24 46 61 90 53 64 77 83 116 98 l49 18 -103 64
c-57 35 -165 103 -241 151 l-137 87 56 75 c35 47 68 80 88 88 17 7 46 23 64
35 l33 21 -143 84 c-129 76 -145 89 -165 129 -22 43 -83 196 -83 207 0 7 66
-34 154 -96z m-2358 -463 c-9 -217 -38 -478 -56 -508 -6 -9 -31 -4 -112 24
-58 20 -114 36 -124 36 -44 1 -49 14 -24 77 30 75 103 222 148 298 36 61 162
235 170 235 3 0 2 -73 -2 -162z m1624 -333 c0 -8 -13 -22 -29 -31 -17 -10 -28
-21 -25 -26 3 -4 -94 -8 -215 -8 -131 0 -221 4 -221 9 0 5 4 21 10 35 l10 26
194 0 c192 0 194 0 200 -22 6 -23 7 -22 32 9 26 32 44 35 44 8z m-229 -185
c21 -12 49 -60 49 -85 0 -12 -16 -15 -95 -15 l-95 0 0 26 c0 37 50 84 90 84
17 0 40 -5 51 -10z"/>
<path d="M9906 4614 c-3 -9 -6 -31 -6 -50 0 -21 -4 -33 -10 -29 -5 3 -19 8
-30 10 -16 3 -20 -2 -20 -26 0 -16 -4 -29 -10 -29 -5 0 -10 -9 -10 -19 0 -11
-6 -22 -12 -24 -10 -4 -10 -6 0 -6 7 -1 10 -6 7 -11 -5 -8 -11 -7 -21 1 -20
16 -28 -10 -14 -45 5 -15 7 -32 4 -37 -3 -6 -1 -16 6 -24 9 -11 7 -12 -9 -8
-17 4 -21 1 -21 -19 0 -13 7 -34 16 -47 13 -18 14 -25 4 -31 -9 -5 -6 -12 11
-24 l23 -16 -24 -1 c-17 -1 -19 -3 -7 -6 26 -7 21 -23 -8 -23 -14 0 -25 5 -25
12 0 6 -9 3 -20 -7 -19 -17 -19 -19 -4 -37 16 -17 16 -18 -2 -19 -17 0 -16 -2
4 -11 12 -6 22 -17 22 -24 0 -7 7 -17 16 -22 11 -6 13 -12 6 -16 -6 -4 -9 -13
-6 -20 3 -8 -5 -16 -20 -20 -14 -3 -26 -11 -26 -16 0 -15 -19 -12 -37 6 -9 8
-22 13 -29 10 -16 -6 -19 10 -4 19 17 11 -2 35 -29 35 -25 1 -25 1 -7 15 11 8
14 15 8 15 -9 0 -7 8 4 25 15 23 15 25 0 25 -10 0 -16 9 -16 25 0 16 -6 25
-16 25 -16 0 -16 11 2 54 5 14 4 17 -4 12 -8 -5 -12 0 -12 13 0 10 -6 22 -12
24 -10 4 -10 8 1 15 11 8 12 14 4 24 -6 7 -14 28 -18 46 -6 27 -9 31 -21 21
-12 -10 -14 -3 -12 41 3 44 0 53 -14 56 -13 2 -17 -3 -14 -19 2 -12 1 -16 -1
-10 -3 7 -15 16 -29 19 -13 3 -21 10 -18 15 8 13 -10 11 -24 -3 -7 -7 -12 -27
-12 -45 0 -28 -3 -32 -22 -30 -13 1 -26 7 -30 12 -4 6 -8 -4 -8 -22 0 -17 -5
-33 -11 -35 -6 -2 -12 -16 -12 -30 -2 -23 -5 -26 -26 -21 -21 5 -22 3 -15 -18
14 -43 13 -79 -2 -79 -19 0 -18 -30 2 -58 10 -15 11 -22 3 -22 -8 0 -6 -6 4
-18 22 -24 21 -33 0 -25 -15 5 -15 3 2 -11 19 -17 19 -17 -17 -12 -40 5 -57
-7 -39 -28 6 -7 8 -16 3 -20 -4 -4 1 -12 11 -17 9 -6 17 -16 17 -24 0 -7 6
-16 13 -18 9 -4 8 -6 -2 -6 -11 -1 -11 -4 -1 -16 10 -13 9 -15 -8 -15 -11 0
-27 -7 -36 -15 -8 -8 -22 -15 -30 -15 -21 0 -20 -10 2 -26 9 -7 29 -10 45 -7
21 4 27 2 27 -11 0 -9 -7 -19 -15 -22 -8 -4 -12 -10 -9 -15 3 -5 1 -9 -5 -9
-6 0 -8 -7 -5 -15 7 -17 -31 -22 -41 -5 -3 6 -16 10 -27 10 -12 0 -19 3 -15 6
3 4 0 13 -8 20 -19 19 -30 18 -14 -2 10 -13 10 -17 -1 -24 -12 -7 -11 -10 5
-15 11 -4 29 -11 40 -16 16 -7 16 -8 -5 -3 -22 6 -23 5 -12 -9 10 -12 10 -16
0 -21 -7 -3 -1 -4 15 -1 22 5 27 2 27 -15 0 -16 5 -20 18 -16 50 15 70 17 76
7 4 -7 -1 -11 -13 -11 -11 0 -23 -5 -27 -11 -3 -6 -14 -9 -24 -6 -11 3 -21 -1
-24 -9 -3 -8 -19 -14 -36 -14 -16 0 -30 -3 -30 -7 1 -18 17 -31 35 -30 11 1
19 -3 18 -10 -3 -15 13 -17 22 -3 3 6 13 10 21 10 8 0 12 -4 9 -10 -3 -5 -1
-10 4 -10 6 0 11 5 11 10 0 6 6 10 14 10 7 0 19 7 26 15 13 15 61 21 73 8 4
-3 0 -15 -10 -25 -15 -17 -15 -18 11 -18 19 0 26 -4 22 -12 -3 -7 -9 -21 -12
-30 -4 -10 -10 -18 -15 -18 -5 0 -9 -4 -9 -8 0 -4 8 -8 19 -8 12 0 17 6 14 17
-3 9 1 20 8 25 8 5 11 3 7 -8 -5 -11 1 -15 20 -16 58 -1 102 -6 102 -12 0 -12
44 -4 48 8 2 6 -4 22 -12 34 -21 30 -20 41 3 28 11 -5 27 -7 35 -4 9 3 16 1
16 -5 0 -6 7 -11 16 -11 10 0 14 6 11 14 -4 11 0 13 16 9 54 -13 87 -15 87 -4
0 6 -5 11 -12 11 -6 0 6 16 28 35 28 25 48 35 72 35 32 0 33 -1 18 -22 -22
-32 -20 -39 10 -32 23 6 25 4 19 -15 -4 -12 -2 -21 4 -21 6 0 8 -7 5 -15 -4
-8 -1 -15 5 -15 7 0 11 -23 11 -60 0 -33 4 -60 10 -60 6 0 10 26 10 58 l0 58
50 -2 c31 -1 57 -8 68 -18 10 -9 26 -16 34 -16 9 0 19 -6 21 -12 4 -10 8 -10
15 1 8 11 10 11 14 0 4 -11 12 -9 36 9 45 32 84 28 50 -6 -9 -9 -8 -12 8 -12
13 0 20 -7 21 -22 1 -13 7 -24 13 -26 5 -2 10 -16 11 -30 l1 -27 9 30 c8 29
10 30 59 27 50 -4 51 -4 45 21 -6 22 -4 25 18 23 22 -3 27 4 46 59 13 35 23
69 25 76 1 8 5 20 10 27 14 23 75 228 121 407 40 154 48 202 26 166 -7 -10
-11 -10 -22 2 -21 20 -39 9 -39 -24 0 -26 -3 -29 -25 -23 -21 5 -25 3 -25 -15
0 -12 -11 -32 -24 -44 -18 -17 -23 -30 -19 -50 3 -15 0 -34 -7 -42 -7 -8 -9
-22 -5 -32 4 -10 9 -33 10 -51 2 -26 0 -32 -12 -27 -9 3 -22 0 -29 -6 -15 -12
-38 -3 -29 12 4 5 1 9 -6 9 -8 0 -9 10 -5 30 3 19 2 29 -4 25 -6 -3 -10 0 -11
7 -3 64 -17 110 -31 102 -7 -5 -9 1 -5 15 7 29 -1 51 -19 51 -8 0 -11 -6 -7
-17 5 -12 1 -11 -15 5 -30 30 -41 28 -48 -8 -5 -21 -12 -30 -25 -30 -11 0 -19
-6 -19 -12 0 -7 -7 -22 -15 -32 -13 -17 -18 -18 -40 -6 -20 10 -24 19 -20 41
4 24 2 27 -20 24 -32 -3 -41 10 -18 24 17 10 17 10 1 11 -16 0 -16 2 2 20 21
21 26 40 10 40 -5 0 -12 11 -16 25 -6 24 -13 28 -44 26 -10 0 -11 1 -2 5 10 5
42 65 42 80 0 2 -7 1 -17 -3 -13 -5 -15 -2 -11 15 4 16 2 22 -9 22 -11 0 -13
3 -5 13 15 18 -18 116 -37 109 -13 -4 -13 6 -1 53 8 31 -1 55 -20 55 -16 0
-19 -5 -17 -22 2 -13 2 -18 0 -11 -2 7 -13 15 -24 18 -10 4 -19 11 -19 16 0
15 -27 10 -34 -7z"/>
<path d="M2805 4094 c-8 -9 -15 -28 -15 -44 0 -27 -2 -29 -30 -23 -26 5 -30 3
-30 -17 0 -25 -38 -83 -50 -75 -13 8 -20 -24 -10 -50 7 -19 5 -34 -7 -59 -15
-32 -15 -37 1 -60 9 -14 12 -26 7 -26 -5 0 -9 -6 -8 -12 1 -33 -4 -47 -16 -42
-7 2 -21 -2 -31 -9 -17 -12 -17 -15 -2 -29 15 -15 15 -17 -2 -21 -13 -3 -11
-6 11 -15 15 -6 27 -18 27 -26 0 -8 6 -17 13 -19 9 -4 8 -6 -2 -6 -11 -1 -11
-4 0 -18 12 -15 12 -16 -3 -11 -9 4 -24 0 -35 -7 -10 -8 -34 -15 -54 -15 -30
0 -37 4 -41 23 -6 33 2 57 18 57 18 0 18 17 0 27 -8 4 -16 17 -18 28 -2 13
-10 19 -22 17 -15 -3 -16 0 -6 18 13 24 4 80 -12 80 -6 0 -8 12 -4 30 3 17 1
30 -4 30 -6 0 -9 3 -8 8 4 16 -24 92 -34 92 -6 0 -8 9 -5 21 7 27 -1 49 -19
49 -8 0 -11 -6 -7 -16 5 -14 3 -14 -16 -3 -11 8 -21 18 -21 23 0 4 -7 3 -15
-4 -8 -7 -15 -18 -14 -24 3 -26 -2 -34 -21 -29 -14 4 -20 0 -20 -12 0 -9 -7
-23 -15 -32 -8 -8 -13 -19 -10 -24 4 -5 -1 -6 -10 -3 -14 6 -15 0 -11 -35 2
-22 0 -41 -5 -41 -10 0 -12 -33 -2 -44 10 -10 11 -46 1 -46 -5 0 -6 -5 -2 -12
5 -8 2 -9 -9 -5 -10 4 -18 1 -19 -6 -4 -34 -2 -43 11 -59 25 -30 21 -47 -15
-60 -41 -15 -39 -32 4 -36 32 -3 46 -22 16 -22 -8 0 -12 -4 -9 -10 3 -5 1 -10
-5 -10 -6 0 -8 -4 -5 -10 11 -17 -21 -11 -48 10 -14 11 -27 20 -30 20 -9 0 -2
-35 10 -48 7 -7 10 -19 7 -27 -4 -10 0 -12 15 -8 15 4 21 1 21 -12 0 -10 6
-15 13 -12 38 14 57 17 57 9 0 -8 -59 -31 -98 -38 -25 -5 -24 -13 2 -20 14 -3
26 -10 26 -15 0 -14 55 -4 81 15 33 22 52 21 44 -4 -5 -14 -2 -20 9 -20 10 0
16 -9 16 -25 0 -14 5 -25 10 -25 6 0 10 -11 10 -25 0 -14 5 -25 10 -25 6 0 10
13 10 28 0 28 1 29 45 22 48 -7 59 -2 49 24 -4 10 -1 16 7 17 8 0 30 2 49 4
19 2 43 -1 52 -6 21 -11 24 -38 6 -40 -7 -1 -17 -2 -23 -4 -5 -1 -21 -3 -34
-3 l-25 -2 22 -20 c12 -11 31 -20 42 -20 12 0 19 -4 15 -9 -10 -17 13 -21 29
-5 9 8 16 11 16 5 0 -17 25 -13 52 8 35 28 78 38 78 18 0 -9 -4 -19 -10 -22
-19 -12 -10 -25 13 -20 18 5 22 2 24 -21 0 -15 6 -29 11 -33 6 -3 12 -24 14
-45 4 -57 28 -60 28 -4 l0 44 70 -3 c64 -3 70 -1 70 17 0 11 -4 20 -10 20 -21
0 -9 18 15 22 14 3 25 1 25 -3 0 -5 9 -9 20 -9 11 0 20 5 20 10 0 6 19 8 49 4
31 -4 51 -2 55 5 4 6 3 11 -3 11 -6 0 -8 7 -4 16 5 13 2 15 -15 9 -19 -5 -22
-2 -23 22 -1 15 -1 32 0 37 1 5 -4 13 -11 17 -9 6 -4 9 15 9 17 0 27 5 27 15
0 8 7 15 15 15 8 0 15 4 15 9 0 10 -31 23 -46 20 -22 -4 -34 2 -34 16 0 8 7
15 15 15 8 0 15 5 15 10 0 6 -5 10 -11 10 -8 0 -7 6 2 16 12 15 10 16 -27 10
-40 -7 -40 -7 -38 23 1 17 -2 31 -7 31 -5 0 -3 11 3 25 6 14 15 25 20 25 5 0
15 6 22 12 11 11 9 15 -12 24 -18 7 -27 18 -27 35 0 20 -5 24 -28 24 -26 -1
-27 0 -11 12 10 7 12 13 6 13 -9 0 -7 8 5 26 16 24 16 27 0 36 -9 5 -17 17
-17 28 0 10 -6 20 -12 23 -10 3 -10 11 -1 35 9 26 9 32 -3 32 -8 0 -11 6 -8
15 4 8 1 15 -5 15 -6 0 -8 7 -5 15 4 8 2 21 -4 28 -5 6 -12 25 -16 40 -5 20
-11 27 -21 23 -18 -6 -21 24 -5 40 7 7 8 19 1 37 -12 31 -23 34 -45 11 -14
-14 -17 -14 -22 -1 -8 23 -32 28 -49 11z"/>
</g>
</svg>
